<?xml version="1.0" encoding="UTF-8"?>
<!DOCTYPE svg PUBLIC "-//W3C//DTD SVG 1.1//EN" "http://www.w3.org/Graphics/SVG/1.1/DTD/svg11.dtd">
<svg xmlns="http://www.w3.org/2000/svg" version="1.1" width="512px" height="512px" style="shape-rendering:geometricPrecision; text-rendering:geometricPrecision; image-rendering:optimizeQuality; fill-rule:evenodd; clip-rule:evenodd" xmlns:xlink="http://www.w3.org/1999/xlink">
<g><path style="opacity:0.974" fill="#030202" d="M 431.5,82.5 C 431.161,85.6692 429.495,87.8359 426.5,89C 412.813,89.0051 399.813,92.0051 387.5,98C 378.658,99.497 371.158,96.997 365,90.5C 361.148,83.2895 357.481,75.9561 354,68.5C 348.154,58.3159 339.654,51.4826 328.5,48C 314.731,45.9656 303.564,50.4656 295,61.5C 288.953,70.2605 283.953,79.5938 280,89.5C 273.309,96.5084 265.142,99.3417 255.5,98C 241.258,90.4828 226.258,88.1495 210.5,91C 194.407,98.3482 187.573,110.848 190,128.5C 207.874,128.642 225.041,132.309 241.5,139.5C 284.002,102.877 330.335,97.3775 380.5,123C 427.857,154.883 444.857,198.717 431.5,254.5C 437.637,258.407 443.637,262.574 449.5,267C 459.629,261.365 469.962,255.698 480.5,250C 503.171,228.047 501.504,208.047 475.5,190C 468.044,186.519 460.711,182.852 453.5,179C 447.063,172.094 444.563,163.927 446,154.5C 451.335,144.495 454.168,133.828 454.5,122.5C 454.496,118.431 453.996,114.431 453,110.5C 450.603,106.377 448.77,102.044 447.5,97.5C 447.719,95.3069 448.385,93.3069 449.5,91.5C 453.488,89.9774 457.321,90.3108 461,92.5C 468.914,105.07 471.58,118.736 469,133.5C 467.471,142.92 464.638,151.92 460.5,160.5C 461.089,163.276 462.422,165.61 464.5,167.5C 480.331,173.178 493.498,182.512 504,195.5C 507.106,201.032 509.606,206.699 511.5,212.5C 511.5,218.833 511.5,225.167 511.5,231.5C 503.297,253.195 487.964,267.695 465.5,275C 464.313,276.019 463.313,277.186 462.5,278.5C 481.965,304.921 487.798,334.254 480,366.5C 472.152,397.013 453.652,418.179 424.5,430C 416.637,433.066 408.637,435.732 400.5,438C 390.361,451.586 377.361,461.586 361.5,468C 317.223,482.965 272.889,482.965 228.5,468C 218.707,463.94 209.707,458.606 201.5,452C 162.981,451.424 124.981,446.757 87.5,438C 84.038,435.761 82.7046,432.594 83.5,428.5C 85.1406,425.339 87.8072,423.672 91.5,423.5C 111.894,428.566 132.561,431.899 153.5,433.5C 165.759,435.258 178.092,435.758 190.5,435C 179.864,403.909 188.197,379.242 215.5,361C 222.401,357.144 229.734,354.477 237.5,353C 248.968,352.394 260.301,353.061 271.5,355C 279.193,345.309 288.193,336.976 298.5,330C 335.312,311.941 367.812,317.774 396,347.5C 411.973,368.198 416.473,391.198 409.5,416.5C 409.833,417.167 410.167,417.833 410.5,418.5C 449.309,405.722 468.309,378.889 467.5,338C 466.745,306.805 452.745,283.805 425.5,269C 415.38,265.221 405.047,262.221 394.5,260C 388.757,254.822 385.257,248.322 384,240.5C 365.917,207.244 338.417,195.077 301.5,204C 293.345,205.84 286.845,203.34 282,196.5C 258.805,157.153 224.305,139.986 178.5,145C 166.394,147.227 155.061,151.393 144.5,157.5C 114.23,176.321 97.7304,203.654 95,239.5C 91.306,248.607 84.4727,253.107 74.5,253C 30.8779,268.388 11.0446,299.222 15,345.5C 16.5827,366.161 24.7494,383.661 39.5,398C 47.9131,403.957 56.4131,409.79 65,415.5C 65.5564,417.885 65.3897,420.218 64.5,422.5C 62.2864,426.252 58.9531,427.419 54.5,426C 22.0645,410.626 3.73121,385.126 -0.5,349.5C -0.5,338.5 -0.5,327.5 -0.5,316.5C 8.93951,272.726 35.6062,245.726 79.5,235.5C 85.1384,187.037 110.472,153.537 155.5,135C 161.674,132.774 168.007,131.274 174.5,130.5C 172.547,95.9604 188.713,76.9604 223,73.5C 235.074,74.0603 246.574,76.8936 257.5,82C 261.505,83.0981 265.005,82.2648 268,79.5C 273.277,63.5679 282.443,50.4013 295.5,40C 323.284,25.5699 346.45,31.0699 365,56.5C 369.361,63.8878 373.194,71.5545 376.5,79.5C 379.278,82.307 382.611,83.1404 386.5,82C 399.855,75.3936 413.855,73.0603 428.5,75C 431.041,76.8484 432.041,79.3484 431.5,82.5 Z"/></g>
<g><path style="opacity:1" fill="#fc8942" d="M 431.5,82.5 C 438.55,83.6141 444.55,86.6141 449.5,91.5C 448.385,93.3069 447.719,95.3069 447.5,97.5C 448.77,102.044 450.603,106.377 453,110.5C 453.996,114.431 454.496,118.431 454.5,122.5C 454.168,133.828 451.335,144.495 446,154.5C 444.563,163.927 447.063,172.094 453.5,179C 460.711,182.852 468.044,186.519 475.5,190C 501.504,208.047 503.171,228.047 480.5,250C 469.962,255.698 459.629,261.365 449.5,267C 443.637,262.574 437.637,258.407 431.5,254.5C 444.857,198.717 427.857,154.883 380.5,123C 330.335,97.3775 284.002,102.877 241.5,139.5C 225.041,132.309 207.874,128.642 190,128.5C 187.573,110.848 194.407,98.3482 210.5,91C 226.258,88.1495 241.258,90.4828 255.5,98C 265.142,99.3417 273.309,96.5084 280,89.5C 283.953,79.5938 288.953,70.2605 295,61.5C 303.564,50.4656 314.731,45.9656 328.5,48C 339.654,51.4826 348.154,58.3159 354,68.5C 357.481,75.9561 361.148,83.2895 365,90.5C 371.158,96.997 378.658,99.497 387.5,98C 399.813,92.0051 412.813,89.0051 426.5,89C 429.495,87.8359 431.161,85.6692 431.5,82.5 Z"/></g>
<g><path style="opacity:1" fill="#f3c755" d="M 306.5,122.5 C 358.6,118.448 395.1,140.115 416,187.5C 422.762,208.205 423.262,229.039 417.5,250C 412.557,249.186 407.557,248.186 402.5,247C 387.387,204.772 357.387,184.439 312.5,186C 306.773,187.12 301.106,188.12 295.5,189C 285.638,172.136 272.638,158.136 256.5,147C 270.975,134.262 287.642,126.095 306.5,122.5 Z"/></g>
<g><path style="opacity:1" fill="#edebfe" d="M 153.5,433.5 C 136.205,417.583 125.705,397.916 122,374.5C 118.949,351.679 122.449,330.012 132.5,309.5C 146.419,313.358 158.253,310.025 168,299.5C 174.27,287.819 172.104,277.986 161.5,270C 158.691,268.259 155.691,267.092 152.5,266.5C 152.706,257.586 156.706,254.919 164.5,258.5C 166.071,260.882 166.904,263.549 167,266.5C 171.333,270.5 175.667,270.5 180,266.5C 180.879,248.05 172.045,239.883 153.5,242C 146.396,244.038 141.73,248.538 139.5,255.5C 129.92,233.262 128.087,210.262 134,186.5C 136.957,176.596 140.457,166.929 144.5,157.5C 155.061,151.393 166.394,147.227 178.5,145C 224.305,139.986 258.805,157.153 282,196.5C 286.845,203.34 293.345,205.84 301.5,204C 338.417,195.077 365.917,207.244 384,240.5C 385.257,248.322 388.757,254.822 394.5,260C 405.047,262.221 415.38,265.221 425.5,269C 452.745,283.805 466.745,306.805 467.5,338C 468.309,378.889 449.309,405.722 410.5,418.5C 410.167,417.833 409.833,417.167 409.5,416.5C 416.473,391.198 411.973,368.198 396,347.5C 367.812,317.774 335.312,311.941 298.5,330C 288.193,336.976 279.193,345.309 271.5,355C 260.301,353.061 248.968,352.394 237.5,353C 229.734,354.477 222.401,357.144 215.5,361C 188.197,379.242 179.864,403.909 190.5,435C 178.092,435.758 165.759,435.258 153.5,433.5 Z"/></g>
<g><path style="opacity:1" fill="#d2d2fe" d="M 144.5,157.5 C 140.457,166.929 136.957,176.596 134,186.5C 128.087,210.262 129.92,233.262 139.5,255.5C 138.586,258.728 138.253,262.061 138.5,265.5C 126.651,265.848 118.484,271.515 114,282.5C 112.414,296.756 118.58,305.756 132.5,309.5C 122.449,330.012 118.949,351.679 122,374.5C 125.705,397.916 136.205,417.583 153.5,433.5C 132.561,431.899 111.894,428.566 91.5,423.5C 87.8072,423.672 85.1406,425.339 83.5,428.5C 76.9067,427.302 70.5734,425.302 64.5,422.5C 65.3897,420.218 65.5564,417.885 65,415.5C 56.4131,409.79 47.9131,403.957 39.5,398C 24.7494,383.661 16.5827,366.161 15,345.5C 11.0446,299.222 30.8779,268.388 74.5,253C 84.4727,253.107 91.306,248.607 95,239.5C 97.7304,203.654 114.23,176.321 144.5,157.5 Z"/></g>
<g><path style="opacity:1" fill="#050506" d="M 152.5,266.5 C 147.454,270.681 142.787,270.348 138.5,265.5C 138.253,262.061 138.586,258.728 139.5,255.5C 141.73,248.538 146.396,244.038 153.5,242C 172.045,239.883 180.879,248.05 180,266.5C 175.667,270.5 171.333,270.5 167,266.5C 166.904,263.549 166.071,260.882 164.5,258.5C 156.706,254.919 152.706,257.586 152.5,266.5 Z"/></g>
<g><path style="opacity:1" fill="#070708" d="M 305.5,265.5 C 300.418,272.077 295.418,272.077 290.5,265.5C 289.98,257.457 286.146,255.124 279,258.5C 278,261.5 277,264.5 276,267.5C 270.879,271.875 266.545,271.209 263,265.5C 262.425,251.238 269.258,243.238 283.5,241.5C 298.124,242.791 305.457,250.791 305.5,265.5 Z"/></g>
<g><path style="opacity:1" fill="#040405" d="M 210.5,246.5 C 221.864,245.573 232.864,247.073 243.5,251C 252.048,257.882 254.881,266.716 252,277.5C 246.561,297.138 233.727,305.638 213.5,303C 194.166,294.019 187.332,279.186 193,258.5C 197.39,252.258 203.223,248.258 210.5,246.5 Z"/></g>
<g><path style="opacity:1" fill="#3c4d5f" d="M 212.5,261.5 C 217.844,261.334 223.177,261.501 228.5,262C 231.822,262.059 234.656,263.226 237,265.5C 239.098,281.395 232.265,288.895 216.5,288C 207.373,282.58 204.207,274.746 207,264.5C 208.876,263.391 210.709,262.391 212.5,261.5 Z"/></g>
<g><path style="opacity:1" fill="#fea1ac" d="M 138.5,265.5 C 142.787,270.348 147.454,270.681 152.5,266.5C 155.691,267.092 158.691,268.259 161.5,270C 172.104,277.986 174.27,287.819 168,299.5C 158.253,310.025 146.419,313.358 132.5,309.5C 118.58,305.756 112.414,296.756 114,282.5C 118.484,271.515 126.651,265.848 138.5,265.5 Z"/></g>
<g><path style="opacity:1" fill="#fea1ac" d="M 290.5,265.5 C 295.418,272.077 300.418,272.077 305.5,265.5C 316.154,266.74 323.987,272.073 329,281.5C 331.034,298.479 323.534,308.312 306.5,311C 293.769,313.216 283.269,309.382 275,299.5C 269.811,290.681 270.478,282.347 277,274.5C 281.136,270.856 285.636,267.856 290.5,265.5 Z"/></g>
<g><path style="opacity:1" fill="#d1d1fd" d="M 327.5,334.5 C 363.989,332.842 387.156,349.508 397,384.5C 400.485,415.038 388.652,437.205 361.5,451C 331.576,463.115 300.576,466.782 268.5,462C 252.31,460.12 236.977,455.453 222.5,448C 200.124,433.076 194.957,413.576 207,389.5C 222.138,369.067 241.972,362.733 266.5,370.5C 277.731,370.469 285.898,365.469 291,355.5C 300.92,344.461 313.086,337.461 327.5,334.5 Z"/></g>
</svg>
