<?xml version="1.0" encoding="UTF-8"?>
<!DOCTYPE svg PUBLIC "-//W3C//DTD SVG 1.1//EN" "http://www.w3.org/Graphics/SVG/1.1/DTD/svg11.dtd">
<svg xmlns="http://www.w3.org/2000/svg" version="1.1" width="512px" height="512px" style="shape-rendering:geometricPrecision; text-rendering:geometricPrecision; image-rendering:optimizeQuality; fill-rule:evenodd; clip-rule:evenodd" xmlns:xlink="http://www.w3.org/1999/xlink">
<g><path style="opacity:0.973" fill="#010101" d="M 239.5,-0.5 C 250.167,-0.5 260.833,-0.5 271.5,-0.5C 329.639,10.1353 366.139,44.1353 381,101.5C 381.998,107.487 382.832,113.487 383.5,119.5C 403.468,121.07 420.634,128.737 435,142.5C 435.736,145.592 435.569,148.592 434.5,151.5C 431.406,153.347 428.072,153.847 424.5,153C 409.486,140.549 392.153,134.215 372.5,134C 370.274,132.773 368.774,130.939 368,128.5C 366.65,82.2749 345.816,48.1082 305.5,26C 248.786,2.8859 201.286,15.0526 163,62.5C 149.479,82.3978 142.812,104.398 143,128.5C 141.744,132.046 139.244,134.046 135.5,134.5C 104.897,135.88 82.7302,150.213 69,177.5C 63.0475,193.602 61.8808,210.102 65.5,227C 65.3017,230.401 63.6351,232.734 60.5,234C 50.8333,234.333 41.1667,234.667 31.5,235C 15.2126,241.859 10.7126,253.359 18,269.5C 21.4136,274.252 25.9136,277.419 31.5,279C 111.833,279.5 192.166,279.667 272.5,279.5C 341.501,279.667 410.501,279.5 479.5,279C 492.558,274.386 498.058,265.219 496,251.5C 493.167,243.333 487.667,237.833 479.5,235C 469.833,234.667 460.167,234.333 450.5,234C 448.333,233.167 446.833,231.667 446,229.5C 447.37,217.572 447.703,205.572 447,193.5C 445.013,185.194 442.179,177.194 438.5,169.5C 439.071,166.687 440.404,164.354 442.5,162.5C 445.625,161.12 448.625,161.453 451.5,163.5C 461.823,180.782 465.49,199.449 462.5,219.5C 487.188,215.659 503.522,225.325 511.5,248.5C 511.5,254.167 511.5,259.833 511.5,265.5C 507.015,280.15 497.349,289.65 482.5,294C 331.167,294.667 179.833,294.667 28.5,294C 13.6512,289.65 3.98451,280.15 -0.5,265.5C -0.5,259.833 -0.5,254.167 -0.5,248.5C 7.47818,225.325 23.8115,215.659 48.5,219.5C 44.7708,172.439 64.7708,140.272 108.5,123C 114.723,121.185 121.056,120.019 127.5,119.5C 133.172,65.6758 160.838,28.1758 210.5,7C 220.095,3.68558 229.762,1.18558 239.5,-0.5 Z"/></g>
<g><path style="opacity:1" fill="#f1f5fb" d="M 434.5,151.5 C 437.167,155.167 439.833,158.833 442.5,162.5C 440.404,164.354 439.071,166.687 438.5,169.5C 442.179,177.194 445.013,185.194 447,193.5C 447.703,205.572 447.37,217.572 446,229.5C 446.833,231.667 448.333,233.167 450.5,234C 460.167,234.333 469.833,234.667 479.5,235C 487.667,237.833 493.167,243.333 496,251.5C 498.058,265.219 492.558,274.386 479.5,279C 410.501,279.5 341.501,279.667 272.5,279.5C 259.813,271.64 250.48,260.807 244.5,247C 215.173,243.335 190.173,231.168 169.5,210.5C 181.669,211.502 192.169,207.836 201,199.5C 207.761,188.844 206.594,179.177 197.5,170.5C 198.558,169.4 199.392,168.066 200,166.5C 200.667,160.833 200.667,155.167 200,149.5C 197.487,145.788 193.987,144.622 189.5,146C 188,146.833 186.833,148 186,149.5C 185.501,154.489 185.334,159.489 185.5,164.5C 169.873,160.925 157.539,165.592 148.5,178.5C 147.25,178.423 146.417,177.756 146,176.5C 140.294,163.009 136.794,149.009 135.5,134.5C 139.244,134.046 141.744,132.046 143,128.5C 142.812,104.398 149.479,82.3978 163,62.5C 201.286,15.0526 248.786,2.8859 305.5,26C 345.816,48.1082 366.65,82.2749 368,128.5C 368.774,130.939 370.274,132.773 372.5,134C 392.153,134.215 409.486,140.549 424.5,153C 428.072,153.847 431.406,153.347 434.5,151.5 Z"/></g>
<g><path style="opacity:1" fill="#e8ecf4" d="M 135.5,134.5 C 136.794,149.009 140.294,163.009 146,176.5C 146.417,177.756 147.25,178.423 148.5,178.5C 144.776,188.58 147.109,197.08 155.5,204C 159.877,207.025 164.544,209.192 169.5,210.5C 190.173,231.168 215.173,243.335 244.5,247C 250.48,260.807 259.813,271.64 272.5,279.5C 192.166,279.667 111.833,279.5 31.5,279C 25.9136,277.419 21.4136,274.252 18,269.5C 10.7126,253.359 15.2126,241.859 31.5,235C 41.1667,234.667 50.8333,234.333 60.5,234C 63.6351,232.734 65.3017,230.401 65.5,227C 61.8808,210.102 63.0475,193.602 69,177.5C 82.7302,150.213 104.897,135.88 135.5,134.5 Z"/></g>
<g><path style="opacity:1" fill="#040404" d="M 197.5,170.5 C 191.107,173.212 187.107,171.212 185.5,164.5C 185.334,159.489 185.501,154.489 186,149.5C 186.833,148 188,146.833 189.5,146C 193.987,144.622 197.487,145.788 200,149.5C 200.667,155.167 200.667,160.833 200,166.5C 199.392,168.066 198.558,169.4 197.5,170.5 Z"/></g>
<g><path style="opacity:1" fill="#040404" d="M 325.5,164.5 C 323.893,171.212 319.893,173.212 313.5,170.5C 312.442,169.4 311.608,168.066 311,166.5C 310.333,160.833 310.333,155.167 311,149.5C 313.513,145.788 317.013,144.622 321.5,146C 323,146.833 324.167,148 325,149.5C 325.499,154.489 325.666,159.489 325.5,164.5 Z"/></g>
<g><path style="opacity:1" fill="#050505" d="M 236.5,156.5 C 241.213,156.19 244.88,158.023 247.5,162C 253.376,165.522 259.042,165.189 264.5,161C 269.675,154.846 274.508,155.012 279,161.5C 279.76,166.482 277.927,170.315 273.5,173C 262.893,179.495 251.893,180.162 240.5,175C 237.705,173.207 235.205,171.04 233,168.5C 230.458,163.361 231.624,159.361 236.5,156.5 Z"/></g>
<g><path style="opacity:1" fill="#fea1ac" d="M 185.5,164.5 C 187.107,171.212 191.107,173.212 197.5,170.5C 206.594,179.177 207.761,188.844 201,199.5C 192.169,207.836 181.669,211.502 169.5,210.5C 164.544,209.192 159.877,207.025 155.5,204C 147.109,197.08 144.776,188.58 148.5,178.5C 157.539,165.592 169.873,160.925 185.5,164.5 Z"/></g>
<g><path style="opacity:1" fill="#fea1ac" d="M 313.5,170.5 C 319.893,173.212 323.893,171.212 325.5,164.5C 338.83,161.667 350.33,165 360,174.5C 367.917,191.042 363.083,202.542 345.5,209C 331.777,212.778 319.944,209.611 310,199.5C 303.239,188.844 304.406,179.177 313.5,170.5 Z"/></g>
<g><path style="opacity:0.954" fill="#010202" d="M 129.5,319.5 C 135.929,318.698 141.929,319.864 147.5,323C 161.806,334.793 172.306,349.293 179,366.5C 186.617,386.317 184.617,404.984 173,422.5C 153.127,443.004 130.96,445.838 106.5,431C 87.8997,414.027 82.733,393.527 91,369.5C 98.4372,348.577 111.271,331.91 129.5,319.5 Z"/></g>
<g><path style="opacity:0.954" fill="#010202" d="M 369.5,319.5 C 375.929,318.698 381.929,319.864 387.5,323C 401.806,334.793 412.306,349.293 419,366.5C 426.617,386.317 424.617,404.984 413,422.5C 393.127,443.004 370.96,445.838 346.5,431C 327.9,414.027 322.733,393.527 331,369.5C 338.437,348.577 351.271,331.91 369.5,319.5 Z"/></g>
<g><path style="opacity:1" fill="#b0d1fd" d="M 150.5,349.5 C 136.334,367.165 132.501,386.832 139,408.5C 141.211,413.611 144.377,417.944 148.5,421.5C 130.274,428.367 116.107,423.367 106,406.5C 101.17,390.281 103.17,374.947 112,360.5C 117.859,350.981 125.026,342.481 133.5,335C 135.289,334.48 136.956,334.813 138.5,336C 143.102,340.094 147.102,344.594 150.5,349.5 Z"/></g>
<g><path style="opacity:1" fill="#b0d1fd" d="M 390.5,349.5 C 376.334,367.165 372.501,386.832 379,408.5C 381.211,413.611 384.377,417.944 388.5,421.5C 370.274,428.367 356.107,423.367 346,406.5C 341.17,390.281 343.17,374.947 352,360.5C 357.859,350.981 365.026,342.481 373.5,335C 375.289,334.48 376.956,334.813 378.5,336C 383.102,340.094 387.102,344.594 390.5,349.5 Z"/></g>
<g><path style="opacity:0.844" fill="#000000" d="M 252.5,346.5 C 260.658,345.823 264.158,349.49 263,357.5C 260.774,361.861 257.274,363.361 252.5,362C 248.139,359.774 246.639,356.274 248,351.5C 249.025,349.313 250.525,347.646 252.5,346.5 Z"/></g>
<g><path style="opacity:1" fill="#cbe0fd" d="M 150.5,349.5 C 163.663,363.154 169.163,379.487 167,398.5C 165.028,409.63 158.861,417.296 148.5,421.5C 144.377,417.944 141.211,413.611 139,408.5C 132.501,386.832 136.334,367.165 150.5,349.5 Z"/></g>
<g><path style="opacity:1" fill="#cbe0fd" d="M 390.5,349.5 C 403.663,363.154 409.163,379.487 407,398.5C 405.028,409.63 398.861,417.296 388.5,421.5C 384.377,417.944 381.211,413.611 379,408.5C 372.501,386.832 376.334,367.165 390.5,349.5 Z"/></g>
<g><path style="opacity:0.951" fill="#010202" d="M 294.5,451.5 C 291.728,451.78 289.228,451.113 287,449.5C 283.104,439.366 277.937,430.033 271.5,421.5C 267.037,416.535 262.37,411.702 257.5,407C 256.167,406.333 254.833,406.333 253.5,407C 239.226,418.931 229.393,433.764 224,451.5C 220.294,469.223 225.794,483.056 240.5,493C 250.684,497.701 260.684,497.534 270.5,492.5C 274.672,490.842 278.172,488.175 281,484.5C 284.048,479.737 286.548,474.737 288.5,469.5C 290.246,467.146 292.579,466.146 295.5,466.5C 299.933,467.269 302.266,469.936 302.5,474.5C 297.084,493.916 284.751,506.249 265.5,511.5C 258.833,511.5 252.167,511.5 245.5,511.5C 218.347,502.907 205.847,484.24 208,455.5C 212.569,428.504 226.069,407.338 248.5,392C 254.809,389.705 260.809,390.372 266.5,394C 280.008,405.514 290.508,419.347 298,435.5C 301.3,440.727 301.133,445.727 297.5,450.5C 296.583,451.127 295.583,451.461 294.5,451.5 Z"/></g>
<g><path style="opacity:1" fill="#b0d1fd" d="M 271.5,421.5 C 259.262,435.389 254.095,451.722 256,470.5C 257.467,478.432 260.8,485.432 266,491.5C 267.356,492.38 268.856,492.714 270.5,492.5C 260.684,497.534 250.684,497.701 240.5,493C 225.794,483.056 220.294,469.223 224,451.5C 229.393,433.764 239.226,418.931 253.5,407C 254.833,406.333 256.167,406.333 257.5,407C 262.37,411.702 267.037,416.535 271.5,421.5 Z"/></g>
<g><path style="opacity:0.998" fill="#cbe0fd" d="M 271.5,421.5 C 277.937,430.033 283.104,439.366 287,449.5C 289.228,451.113 291.728,451.78 294.5,451.5C 295.445,456.405 295.779,461.405 295.5,466.5C 292.579,466.146 290.246,467.146 288.5,469.5C 286.548,474.737 284.048,479.737 281,484.5C 278.172,488.175 274.672,490.842 270.5,492.5C 268.856,492.714 267.356,492.38 266,491.5C 260.8,485.432 257.467,478.432 256,470.5C 254.095,451.722 259.262,435.389 271.5,421.5 Z"/></g>
<g><path style="opacity:0.844" fill="#000000" d="M 132.5,468.5 C 140.658,467.823 144.158,471.49 143,479.5C 140.774,483.861 137.274,485.361 132.5,484C 128.139,481.774 126.639,478.274 128,473.5C 129.025,471.313 130.525,469.646 132.5,468.5 Z"/></g>
<g><path style="opacity:0.844" fill="#000000" d="M 372.5,468.5 C 380.658,467.823 384.158,471.49 383,479.5C 380.774,483.861 377.274,485.361 372.5,484C 368.139,481.774 366.639,478.274 368,473.5C 369.025,471.313 370.525,469.646 372.5,468.5 Z"/></g>
</svg>
