<?xml version="1.0" encoding="UTF-8"?>
<!DOCTYPE svg PUBLIC "-//W3C//DTD SVG 1.1//EN" "http://www.w3.org/Graphics/SVG/1.1/DTD/svg11.dtd">
<svg xmlns="http://www.w3.org/2000/svg" version="1.1" width="512px" height="512px" style="shape-rendering:geometricPrecision; text-rendering:geometricPrecision; image-rendering:optimizeQuality; fill-rule:evenodd; clip-rule:evenodd" xmlns:xlink="http://www.w3.org/1999/xlink">
<g><path style="opacity:0.987" fill="#000000" d="M 252.5,37.5 C 292.241,38.6068 320.741,56.9401 338,92.5C 352.35,133.939 343.183,169.105 310.5,198C 278.084,220.264 244.417,222.264 209.5,204C 172.935,178.663 159.768,144.163 170,100.5C 184.417,62.2373 211.917,41.2373 252.5,37.5 Z"/></g>
<g><path style="opacity:0.982" fill="#000000" d="M 93.5,120.5 C 134.085,120.853 158.252,140.853 166,180.5C 167.209,214.945 151.876,238.612 120,251.5C 87.1444,259.776 61.1444,250.109 42,222.5C 25.6439,189.468 30.8105,160.301 57.5,135C 68.2794,126.912 80.2794,122.079 93.5,120.5 Z"/></g>
<g><path style="opacity:0.982" fill="#000000" d="M 405.5,120.5 C 445.703,120.542 469.87,140.209 478,179.5C 480.206,212.607 466.372,236.107 436.5,250C 401.203,260.921 373.369,251.088 353,220.5C 339.915,193.668 342.249,168.335 360,144.5C 372.387,131.059 387.553,123.059 405.5,120.5 Z"/></g>
<g><path style="opacity:0.988" fill="#000000" d="M 206.5,233.5 C 239.168,233.333 271.835,233.5 304.5,234C 336.066,236.906 358.066,252.906 370.5,282C 373.025,289.292 374.525,296.792 375,304.5C 375.667,356.167 375.667,407.833 375,459.5C 373.833,467.333 369.333,471.833 361.5,473C 290.833,473.667 220.167,473.667 149.5,473C 141.667,471.833 137.167,467.333 136,459.5C 135.333,407.833 135.333,356.167 136,304.5C 138.661,273.512 154.161,251.679 182.5,239C 190.448,236.314 198.448,234.481 206.5,233.5 Z"/></g>
<g><path style="opacity:0.985" fill="#000000" d="M -0.5,437.5 C -0.5,403.167 -0.5,368.833 -0.5,334.5C 7.2156,299.953 28.5489,279.453 63.5,273C 80.1767,272.167 96.8433,272.334 113.5,273.5C 110.881,280.975 109.048,288.642 108,296.5C 107.333,352.833 107.333,409.167 108,465.5C 108.822,468.117 109.322,470.784 109.5,473.5C 84.1383,473.91 58.805,473.41 33.5,472C 15.5504,466.871 4.21706,455.371 -0.5,437.5 Z"/></g>
<g><path style="opacity:0.985" fill="#000000" d="M 511.5,334.5 C 511.5,368.833 511.5,403.167 511.5,437.5C 506.783,455.371 495.45,466.871 477.5,472C 452.195,473.41 426.862,473.91 401.5,473.5C 401.678,470.784 402.178,468.117 403,465.5C 403.667,409.167 403.667,352.833 403,296.5C 401.952,288.642 400.119,280.975 397.5,273.5C 414.157,272.334 430.823,272.167 447.5,273C 482.451,279.453 503.784,299.953 511.5,334.5 Z"/></g>
</svg>
