<?xml version="1.0" encoding="UTF-8"?>
<!DOCTYPE svg PUBLIC "-//W3C//DTD SVG 1.1//EN" "http://www.w3.org/Graphics/SVG/1.1/DTD/svg11.dtd">
<svg xmlns="http://www.w3.org/2000/svg" version="1.1" width="512px" height="512px" style="shape-rendering:geometricPrecision; text-rendering:geometricPrecision; image-rendering:optimizeQuality; fill-rule:evenodd; clip-rule:evenodd" xmlns:xlink="http://www.w3.org/1999/xlink">
<g><path style="opacity:0.973" fill="#010101" d="M 239.5,-0.5 C 250.167,-0.5 260.833,-0.5 271.5,-0.5C 329.639,10.1353 366.139,44.1353 381,101.5C 381.998,107.487 382.832,113.487 383.5,119.5C 403.468,121.07 420.634,128.737 435,142.5C 435.736,145.592 435.569,148.592 434.5,151.5C 431.406,153.347 428.072,153.847 424.5,153C 409.486,140.549 392.153,134.215 372.5,134C 370.274,132.773 368.774,130.939 368,128.5C 366.65,82.2749 345.816,48.1082 305.5,26C 248.786,2.8859 201.286,15.0526 163,62.5C 149.479,82.3978 142.812,104.398 143,128.5C 141.744,132.046 139.244,134.046 135.5,134.5C 104.897,135.88 82.7302,150.213 69,177.5C 63.0475,193.602 61.8808,210.102 65.5,227C 65.3017,230.401 63.6351,232.734 60.5,234C 50.8333,234.333 41.1667,234.667 31.5,235C 15.2126,241.859 10.7126,253.359 18,269.5C 21.4136,274.252 25.9136,277.419 31.5,279C 111.833,279.5 192.166,279.667 272.5,279.5C 341.501,279.667 410.501,279.5 479.5,279C 492.558,274.386 498.058,265.219 496,251.5C 493.167,243.333 487.667,237.833 479.5,235C 469.833,234.667 460.167,234.333 450.5,234C 448.333,233.167 446.833,231.667 446,229.5C 447.37,217.572 447.703,205.572 447,193.5C 445.013,185.194 442.179,177.194 438.5,169.5C 439.071,166.687 440.404,164.354 442.5,162.5C 445.625,161.12 448.625,161.453 451.5,163.5C 461.823,180.782 465.49,199.449 462.5,219.5C 487.188,215.659 503.522,225.325 511.5,248.5C 511.5,254.167 511.5,259.833 511.5,265.5C 507.015,280.15 497.349,289.65 482.5,294C 331.167,294.667 179.833,294.667 28.5,294C 13.6512,289.65 3.98451,280.15 -0.5,265.5C -0.5,259.833 -0.5,254.167 -0.5,248.5C 7.47818,225.325 23.8115,215.659 48.5,219.5C 44.7708,172.439 64.7708,140.272 108.5,123C 114.723,121.185 121.056,120.019 127.5,119.5C 133.172,65.6758 160.838,28.1758 210.5,7C 220.095,3.68558 229.762,1.18558 239.5,-0.5 Z"/></g>
<g><path style="opacity:1" fill="#f1f5fb" d="M 434.5,151.5 C 437.167,155.167 439.833,158.833 442.5,162.5C 440.404,164.354 439.071,166.687 438.5,169.5C 442.179,177.194 445.013,185.194 447,193.5C 447.703,205.572 447.37,217.572 446,229.5C 446.833,231.667 448.333,233.167 450.5,234C 460.167,234.333 469.833,234.667 479.5,235C 487.667,237.833 493.167,243.333 496,251.5C 498.058,265.219 492.558,274.386 479.5,279C 410.501,279.5 341.501,279.667 272.5,279.5C 259.813,271.64 250.48,260.807 244.5,247C 215.173,243.335 190.173,231.168 169.5,210.5C 181.236,211.045 191.069,207.045 199,198.5C 205.104,186.677 203.271,176.343 193.5,167.5C 198.985,166.507 203.485,163.841 207,159.5C 209.875,151.412 207.042,147.579 198.5,148C 196.13,150.37 193.296,151.87 190,152.5C 186.704,151.87 183.87,150.37 181.5,148C 172.384,148.683 170.051,153.183 174.5,161.5C 162.845,160.831 153.179,164.831 145.5,173.5C 139.895,161.161 136.561,148.161 135.5,134.5C 139.244,134.046 141.744,132.046 143,128.5C 142.812,104.398 149.479,82.3978 163,62.5C 201.286,15.0526 248.786,2.8859 305.5,26C 345.816,48.1082 366.65,82.2749 368,128.5C 368.774,130.939 370.274,132.773 372.5,134C 392.153,134.215 409.486,140.549 424.5,153C 428.072,153.847 431.406,153.347 434.5,151.5 Z"/></g>
<g><path style="opacity:1" fill="#e8ecf4" d="M 135.5,134.5 C 136.561,148.161 139.895,161.161 145.5,173.5C 138.607,187.926 142.274,199.093 156.5,207C 160.629,208.949 164.963,210.116 169.5,210.5C 190.173,231.168 215.173,243.335 244.5,247C 250.48,260.807 259.813,271.64 272.5,279.5C 192.166,279.667 111.833,279.5 31.5,279C 25.9136,277.419 21.4136,274.252 18,269.5C 10.7126,253.359 15.2126,241.859 31.5,235C 41.1667,234.667 50.8333,234.333 60.5,234C 63.6351,232.734 65.3017,230.401 65.5,227C 61.8808,210.102 63.0475,193.602 69,177.5C 82.7302,150.213 104.897,135.88 135.5,134.5 Z"/></g>
<g><path style="opacity:1" fill="#070707" d="M 193.5,167.5 C 186.334,168.081 180.001,166.081 174.5,161.5C 170.051,153.183 172.384,148.683 181.5,148C 183.87,150.37 186.704,151.87 190,152.5C 193.296,151.87 196.13,150.37 198.5,148C 207.042,147.579 209.875,151.412 207,159.5C 203.485,163.841 198.985,166.507 193.5,167.5 Z"/></g>
<g><path style="opacity:1" fill="#060606" d="M 335.5,161.5 C 330.42,166.082 324.42,168.082 317.5,167.5C 312.142,166.314 307.642,163.648 304,159.5C 301.125,151.412 303.958,147.579 312.5,148C 314.455,148.953 316.122,150.287 317.5,152C 319.5,152.667 321.5,152.667 323.5,152C 328.181,146.26 333.014,146.093 338,151.5C 339.139,155.421 338.305,158.754 335.5,161.5 Z"/></g>
<g><path style="opacity:1" fill="#050505" d="M 236.5,156.5 C 241.213,156.19 244.88,158.023 247.5,162C 253.376,165.522 259.042,165.189 264.5,161C 269.675,154.846 274.508,155.012 279,161.5C 279.76,166.482 277.927,170.315 273.5,173C 262.893,179.495 251.893,180.162 240.5,175C 237.705,173.207 235.205,171.04 233,168.5C 230.458,163.361 231.624,159.361 236.5,156.5 Z"/></g>
<g><path style="opacity:1" fill="#fea1ac" d="M 335.5,161.5 C 351.476,160.395 362.642,167.061 369,181.5C 369.504,196.012 362.671,205.178 348.5,209C 334.864,212.466 323.031,209.3 313,199.5C 305.751,187.505 307.251,176.838 317.5,167.5C 324.42,168.082 330.42,166.082 335.5,161.5 Z"/></g>
<g><path style="opacity:1" fill="#fea1ac" d="M 174.5,161.5 C 180.001,166.081 186.334,168.081 193.5,167.5C 203.271,176.343 205.104,186.677 199,198.5C 191.069,207.045 181.236,211.045 169.5,210.5C 164.963,210.116 160.629,208.949 156.5,207C 142.274,199.093 138.607,187.926 145.5,173.5C 153.179,164.831 162.845,160.831 174.5,161.5 Z"/></g>
<g><path style="opacity:0.964" fill="#000000" d="M 297.5,319.5 C 301.846,319.334 306.179,319.501 310.5,320C 315.743,324.588 315.743,329.255 310.5,334C 292.192,334.965 284.026,344.465 286,362.5C 289.391,372.122 296.224,377.289 306.5,378C 312.833,378.667 319.167,378.667 325.5,378C 316.085,363.109 316.252,348.276 326,333.5C 339.278,318.959 355.111,315.459 373.5,323C 390.256,333.354 396.423,348.188 392,367.5C 387.898,379.268 380.064,387.435 368.5,392C 259.876,393.658 151.21,393.992 42.5,393C 38.5,388.333 38.5,383.667 42.5,379C 120.167,378.667 197.833,378.333 275.5,378C 268.937,366.396 267.77,354.229 272,341.5C 277.246,330.308 285.746,322.975 297.5,319.5 Z M 355.5,334.5 C 372.533,337.573 379.366,347.573 376,364.5C 368.06,378.116 357.227,381.283 343.5,374C 331.5,362.333 331.5,350.667 343.5,339C 347.301,336.584 351.301,335.084 355.5,334.5 Z"/></g>
<g><path style="opacity:0.935" fill="#000000" d="M -0.5,360.5 C -0.5,357.833 -0.5,355.167 -0.5,352.5C 0.639972,351.199 1.97331,350.032 3.5,349C 84.8333,348.333 166.167,348.333 247.5,349C 252.224,351.435 253.724,355.269 252,360.5C 250.786,362.049 249.286,363.215 247.5,364C 166.5,364.667 85.5,364.667 4.5,364C 2.67694,363.003 1.01027,361.836 -0.5,360.5 Z"/></g>
<g><path style="opacity:0.948" fill="#000000" d="M 511.5,406.5 C 511.5,412.5 511.5,418.5 511.5,424.5C 507.348,438.817 498.015,447.984 483.5,452C 436.167,452.667 388.833,452.667 341.5,452C 336.177,447.286 336.177,442.62 341.5,438C 359.167,437.667 376.833,437.333 394.5,437C 383.185,417.567 385.851,400.234 402.5,385C 410.663,379.377 419.663,377.377 429.5,379C 433.5,383.667 433.5,388.333 429.5,393C 410.062,394.414 401.896,404.581 405,423.5C 407.892,429.392 412.392,433.559 418.5,436C 426.786,437.454 435.119,437.787 443.5,437C 436.937,425.396 435.77,413.229 440,400.5C 449.141,382.847 463.641,375.68 483.5,379C 498.015,383.016 507.348,392.183 511.5,406.5 Z M 468.5,394.5 C 487.981,393.147 496.814,402.147 495,421.5C 488.712,435.825 478.212,439.992 463.5,434C 453.242,426.271 450.742,416.438 456,404.5C 459.191,399.837 463.358,396.503 468.5,394.5 Z"/></g>
<g><path style="opacity:0.932" fill="#000000" d="M 133.5,407.5 C 211.167,407.333 288.834,407.5 366.5,408C 371.535,411.013 372.702,415.18 370,420.5C 369.097,421.701 367.931,422.535 366.5,423C 288.833,423.667 211.167,423.667 133.5,423C 128.465,419.987 127.298,415.82 130,410.5C 131.145,409.364 132.312,408.364 133.5,407.5 Z"/></g>
<g><path style="opacity:0.99" fill="#000000" d="M 42.5,437.5 C 91.1678,437.333 139.834,437.5 188.5,438C 191.366,439.393 192.699,441.726 192.5,445C 192.699,448.274 191.366,450.607 188.5,452C 139.833,452.667 91.1667,452.667 42.5,452C 38.5368,447.168 38.5368,442.334 42.5,437.5 Z"/></g>
<g><path style="opacity:0.96" fill="#000000" d="M 304.5,511.5 C 217.167,511.5 129.833,511.5 42.5,511.5C 38.5368,506.666 38.5368,501.832 42.5,497C 100.167,496.667 157.833,496.333 215.5,496C 208.937,484.396 207.77,472.229 212,459.5C 219.761,443.367 232.594,436.2 250.5,438C 255.743,442.588 255.743,447.255 250.5,452C 227.35,455.14 220.517,467.307 230,488.5C 232.99,491.491 236.49,493.657 240.5,495C 248.786,496.454 257.119,496.787 265.5,496C 256.085,481.109 256.252,466.276 266,451.5C 279.278,436.959 295.111,433.459 313.5,441C 331.383,452.308 337.216,468.142 331,488.5C 325.641,500.371 316.808,508.038 304.5,511.5 Z M 295.5,452.5 C 312.533,455.573 319.366,465.573 316,482.5C 308.06,496.116 297.227,499.283 283.5,492C 271.5,480.333 271.5,468.667 283.5,457C 287.301,454.584 291.301,453.084 295.5,452.5 Z"/></g>
<g><path style="opacity:0.934" fill="#000000" d="M -0.5,478.5 C -0.5,475.833 -0.5,473.167 -0.5,470.5C 0.639972,469.199 1.97331,468.032 3.5,467C 64.8333,466.333 126.167,466.333 187.5,467C 192.224,469.435 193.724,473.269 192,478.5C 190.786,480.049 189.286,481.215 187.5,482C 126.5,482.667 65.5,482.667 4.5,482C 2.67694,481.003 1.01027,479.836 -0.5,478.5 Z"/></g>
<g><path style="opacity:0.929" fill="#000000" d="M 363.5,466.5 C 401.501,466.333 439.501,466.5 477.5,467C 482.535,470.013 483.702,474.18 481,479.5C 480.097,480.701 478.931,481.535 477.5,482C 439.833,482.667 402.167,482.667 364.5,482C 359.776,479.565 358.276,475.731 360,470.5C 361.102,469.051 362.269,467.718 363.5,466.5 Z"/></g>
</svg>
