<?xml version="1.0" encoding="UTF-8"?>
<!DOCTYPE svg PUBLIC "-//W3C//DTD SVG 1.1//EN" "http://www.w3.org/Graphics/SVG/1.1/DTD/svg11.dtd">
<svg xmlns="http://www.w3.org/2000/svg" version="1.1" width="512px" height="512px" style="shape-rendering:geometricPrecision; text-rendering:geometricPrecision; image-rendering:optimizeQuality; fill-rule:evenodd; clip-rule:evenodd" xmlns:xlink="http://www.w3.org/1999/xlink">
<g><path style="opacity:0.96" fill="#010101" d="M 511.5,217.5 C 511.5,227.167 511.5,236.833 511.5,246.5C 508.923,259.723 504.423,272.39 498,284.5C 495.204,289.599 491.038,291.265 485.5,289.5C 482.78,286.322 481.946,282.655 483,278.5C 502.591,243.709 500.924,210.042 478,177.5C 462.098,158.128 441.598,146.961 416.5,144C 415.333,142.833 414.167,141.667 413,140.5C 398.137,70.3036 355.304,29.4703 284.5,18C 250.341,14.8731 219.008,22.7064 190.5,41.5C 168.543,56.4582 151.543,75.7915 139.5,99.5C 109.567,98.3162 82.2333,106.15 57.5,123C 56.1667,123.667 54.8333,123.667 53.5,123C 51.9221,121.906 50.2554,121.072 48.5,120.5C 46.9969,117.006 47.3302,113.672 49.5,110.5C 73.5353,93.0653 100.535,84.3986 130.5,84.5C 157.757,37.6757 198.424,10.5091 252.5,3C 320.693,-1.32217 372.86,25.1778 409,82.5C 416.962,97.4221 422.962,113.089 427,129.5C 474.107,140.772 502.274,170.105 511.5,217.5 Z"/></g>
<g><path style="opacity:1" fill="#c0c3c6" d="M 485.5,289.5 C 482.152,292.851 479.152,296.518 476.5,300.5C 473.876,298.348 470.876,297.515 467.5,298C 453.443,309.36 437.443,316.36 419.5,319C 337.501,319.5 255.501,319.667 173.5,319.5C 119.737,258.077 110.237,190.077 145,115.5C 156.84,89.6951 171.84,66.0284 190,44.5C 190.483,43.552 190.649,42.552 190.5,41.5C 219.008,22.7064 250.341,14.8731 284.5,18C 355.304,29.4703 398.137,70.3036 413,140.5C 414.167,141.667 415.333,142.833 416.5,144C 441.598,146.961 462.098,158.128 478,177.5C 500.924,210.042 502.591,243.709 483,278.5C 481.946,282.655 482.78,286.322 485.5,289.5 Z"/></g>
<g><path style="opacity:1" fill="#acafb2" d="M 190.5,41.5 C 190.649,42.552 190.483,43.552 190,44.5C 171.84,66.0284 156.84,89.6951 145,115.5C 110.237,190.077 119.737,258.077 173.5,319.5C 151.831,319.667 130.164,319.5 108.5,319C 55.3131,308.147 24.1464,275.98 15,222.5C 12.4556,191.473 20.7889,163.807 40,139.5C 40.843,135.897 40.343,132.564 38.5,129.5C 41.8333,126.5 45.1667,123.5 48.5,120.5C 50.2554,121.072 51.9221,121.906 53.5,123C 54.8333,123.667 56.1667,123.667 57.5,123C 82.2333,106.15 109.567,98.3162 139.5,99.5C 151.543,75.7915 168.543,56.4582 190.5,41.5 Z"/></g>
<g><path style="opacity:0.959" fill="#040404" d="M 38.5,129.5 C 40.343,132.564 40.843,135.897 40,139.5C 20.7889,163.807 12.4556,191.473 15,222.5C 24.1464,275.98 55.3131,308.147 108.5,319C 130.164,319.5 151.831,319.667 173.5,319.5C 255.501,319.667 337.501,319.5 419.5,319C 437.443,316.36 453.443,309.36 467.5,298C 470.876,297.515 473.876,298.348 476.5,300.5C 477.901,303.877 477.735,307.21 476,310.5C 459.104,324.693 439.604,332.86 417.5,335C 313.481,335.978 209.481,335.645 105.5,334C 45.6349,321.636 10.3015,285.47 -0.5,225.5C -0.5,215.5 -0.5,205.5 -0.5,195.5C 3.00505,170.986 12.6717,149.152 28.5,130C 31.7533,128.18 35.0867,128.013 38.5,129.5 Z"/></g>
<g><path style="opacity:1" fill="#050505" d="M 177.5,167.5 C 181.954,166.617 185.454,167.95 188,171.5C 188.667,177.5 188.667,183.5 188,189.5C 187.164,193.496 184.664,195.496 180.5,195.5C 177.705,194.682 175.538,193.015 174,190.5C 173.333,184.167 173.333,177.833 174,171.5C 175.032,169.973 176.199,168.64 177.5,167.5 Z"/></g>
<g><path style="opacity:1" fill="#050505" d="M 326.5,167.5 C 330.954,166.617 334.454,167.95 337,171.5C 337.667,177.833 337.667,184.167 337,190.5C 331.613,197.472 326.947,197.138 323,189.5C 322.333,183.5 322.333,177.5 323,171.5C 324.032,169.973 325.199,168.64 326.5,167.5 Z"/></g>
<g><path style="opacity:1" fill="#060707" d="M 234.5,179.5 C 236.199,179.34 237.866,179.506 239.5,180C 249.905,189.946 260.239,189.946 270.5,180C 276.629,178.561 280.296,180.894 281.5,187C 279.061,193.582 274.395,197.915 267.5,200C 252.433,205.419 239.933,201.919 230,189.5C 229.077,185.017 230.577,181.683 234.5,179.5 Z"/></g>
<g><path style="opacity:0.952" fill="#000001" d="M 121.5,349.5 C 128.704,349.536 132.537,353.202 133,360.5C 137.618,377.898 135.285,394.232 126,409.5C 117.01,420.161 105.843,423.328 92.5,419C 77.1902,411.056 72.0235,398.889 77,382.5C 82.5,370.333 91.3333,361.5 103.5,356C 109.571,353.701 115.571,351.535 121.5,349.5 Z"/></g>
<g><path style="opacity:0.95" fill="#010102" d="M 246.5,349.5 C 255.117,349.33 259.284,353.664 259,362.5C 263.335,380.827 260.001,397.494 249,412.5C 236.751,422.173 223.917,423.006 210.5,415C 201.163,406.313 198.329,395.813 202,383.5C 208.17,370.332 218.003,360.832 231.5,355C 236.571,353.035 241.571,351.202 246.5,349.5 Z"/></g>
<g><path style="opacity:0.95" fill="#000001" d="M 372.5,349.5 C 375.862,349.07 378.695,350.07 381,352.5C 387.223,368.518 387.556,384.518 382,400.5C 374.412,417.544 361.578,423.711 343.5,419C 327.618,411.038 322.452,398.538 328,381.5C 333.889,369.944 342.723,361.444 354.5,356C 360.5,353.485 366.5,351.318 372.5,349.5 Z"/></g>
<g><path style="opacity:1" fill="#b7e3e9" d="M 115.5,367.5 C 116.822,367.33 117.989,367.663 119,368.5C 120.283,378.1 119.283,387.433 116,396.5C 109.047,407.119 101.047,408.119 92,399.5C 89.2742,389.763 92.1076,381.93 100.5,376C 105.27,372.619 110.27,369.786 115.5,367.5 Z"/></g>
<g><path style="opacity:1" fill="#8ac9d3" d="M 240.5,367.5 C 241.833,367.5 243.167,367.5 244.5,367.5C 245.093,376.663 244.26,385.663 242,394.5C 236.985,406.151 229.319,408.485 219,401.5C 214.441,395.573 214.441,389.573 219,383.5C 225.072,376.563 232.239,371.229 240.5,367.5 Z"/></g>
<g><path style="opacity:1" fill="#b6e2e8" d="M 365.5,367.5 C 367.451,367.227 368.951,367.893 370,369.5C 371.05,377.663 370.383,385.663 368,393.5C 362.116,406.846 353.783,408.846 343,399.5C 340.409,392.893 341.409,386.893 346,381.5C 351.774,375.708 358.274,371.041 365.5,367.5 Z"/></g>
<g><path style="opacity:0.951" fill="#000101" d="M 169.5,439.5 C 177.736,437.863 182.236,441.196 183,449.5C 187.762,467.761 185.095,484.761 175,500.5C 162.428,512.37 148.928,513.537 134.5,504C 122.704,490.781 121.871,476.948 132,462.5C 142.284,451.113 154.784,443.446 169.5,439.5 Z"/></g>
<g><path style="opacity:0.95" fill="#020202" d="M 295.5,439.5 C 300.742,438.271 304.575,439.937 307,444.5C 312.995,463.309 311.329,481.309 302,498.5C 286.333,514.5 270.667,514.5 255,498.5C 248.166,485.009 249.5,472.342 259,460.5C 269.198,449.987 281.365,442.987 295.5,439.5 Z"/></g>
<g><path style="opacity:0.951" fill="#010101" d="M 420.5,439.5 C 427.019,437.884 431.186,440.218 433,446.5C 438.188,464.091 436.522,481.091 428,497.5C 413.035,514.041 397.368,514.708 381,499.5C 373.633,487.355 373.966,475.355 382,463.5C 392.396,451.554 405.23,443.554 420.5,439.5 Z"/></g>
<g><path style="opacity:1" fill="#8ac9d3" d="M 166.5,456.5 C 167.496,456.414 168.329,456.748 169,457.5C 170.535,467.925 169.202,477.925 165,487.5C 158.613,495.58 151.279,496.58 143,490.5C 139.457,484.294 139.791,478.294 144,472.5C 150.283,465.291 157.783,459.958 166.5,456.5 Z"/></g>
<g><path style="opacity:1" fill="#b8e4ea" d="M 292.5,456.5 C 293.822,459.768 294.489,463.435 294.5,467.5C 295.136,476.807 292.469,484.974 286.5,492C 278.975,496.204 272.475,495.037 267,488.5C 265.388,477.224 269.554,468.724 279.5,463C 283.925,460.787 288.259,458.621 292.5,456.5 Z"/></g>
<g><path style="opacity:1" fill="#8ac9d3" d="M 417.5,456.5 C 418.693,456.97 419.36,457.97 419.5,459.5C 421.508,469.237 420.341,478.57 416,487.5C 409.54,495.544 402.207,496.544 394,490.5C 391.031,485.705 390.698,480.705 393,475.5C 399.037,466.401 407.203,460.067 417.5,456.5 Z"/></g>
</svg>
