<?xml version="1.0" encoding="UTF-8"?>
<!DOCTYPE svg PUBLIC "-//W3C//DTD SVG 1.1//EN" "http://www.w3.org/Graphics/SVG/1.1/DTD/svg11.dtd">
<svg xmlns="http://www.w3.org/2000/svg" version="1.1" width="512px" height="512px" style="shape-rendering:geometricPrecision; text-rendering:geometricPrecision; image-rendering:optimizeQuality; fill-rule:evenodd; clip-rule:evenodd" xmlns:xlink="http://www.w3.org/1999/xlink">
<g><path style="opacity:0.973" fill="#010101" d="M 239.5,-0.5 C 250.167,-0.5 260.833,-0.5 271.5,-0.5C 329.639,10.1353 366.139,44.1353 381,101.5C 381.998,107.487 382.832,113.487 383.5,119.5C 403.468,121.07 420.634,128.737 435,142.5C 435.736,145.592 435.569,148.592 434.5,151.5C 431.406,153.347 428.072,153.847 424.5,153C 409.486,140.549 392.153,134.215 372.5,134C 370.274,132.773 368.774,130.939 368,128.5C 366.65,82.2749 345.816,48.1082 305.5,26C 248.786,2.8859 201.286,15.0526 163,62.5C 149.479,82.3978 142.812,104.398 143,128.5C 141.744,132.046 139.244,134.046 135.5,134.5C 104.897,135.88 82.7302,150.213 69,177.5C 63.0475,193.602 61.8808,210.102 65.5,227C 65.3017,230.401 63.6351,232.734 60.5,234C 50.8333,234.333 41.1667,234.667 31.5,235C 15.2126,241.859 10.7126,253.359 18,269.5C 21.4136,274.252 25.9136,277.419 31.5,279C 111.833,279.5 192.166,279.667 272.5,279.5C 341.501,279.667 410.501,279.5 479.5,279C 492.558,274.386 498.058,265.219 496,251.5C 493.167,243.333 487.667,237.833 479.5,235C 469.833,234.667 460.167,234.333 450.5,234C 448.333,233.167 446.833,231.667 446,229.5C 447.37,217.572 447.703,205.572 447,193.5C 445.013,185.194 442.179,177.194 438.5,169.5C 439.071,166.687 440.404,164.354 442.5,162.5C 445.625,161.12 448.625,161.453 451.5,163.5C 461.823,180.782 465.49,199.449 462.5,219.5C 487.188,215.659 503.522,225.325 511.5,248.5C 511.5,254.167 511.5,259.833 511.5,265.5C 507.015,280.15 497.349,289.65 482.5,294C 331.167,294.667 179.833,294.667 28.5,294C 13.6512,289.65 3.98451,280.15 -0.5,265.5C -0.5,259.833 -0.5,254.167 -0.5,248.5C 7.47818,225.325 23.8115,215.659 48.5,219.5C 44.7708,172.439 64.7708,140.272 108.5,123C 114.723,121.185 121.056,120.019 127.5,119.5C 133.172,65.6758 160.838,28.1758 210.5,7C 220.095,3.68558 229.762,1.18558 239.5,-0.5 Z"/></g>
<g><path style="opacity:1" fill="#f1f5fb" d="M 434.5,151.5 C 437.167,155.167 439.833,158.833 442.5,162.5C 440.404,164.354 439.071,166.687 438.5,169.5C 442.179,177.194 445.013,185.194 447,193.5C 447.703,205.572 447.37,217.572 446,229.5C 446.833,231.667 448.333,233.167 450.5,234C 460.167,234.333 469.833,234.667 479.5,235C 487.667,237.833 493.167,243.333 496,251.5C 498.058,265.219 492.558,274.386 479.5,279C 410.501,279.5 341.501,279.667 272.5,279.5C 259.813,271.64 250.48,260.807 244.5,247C 215.173,243.335 190.173,231.168 169.5,210.5C 181.09,211.397 191.256,208.063 200,200.5C 208.851,187.526 206.685,176.693 193.5,168C 190.978,166.659 188.311,165.826 185.5,165.5C 186.801,164.118 187.634,162.452 188,160.5C 188.667,155.167 188.667,149.833 188,144.5C 183.748,138.347 179.081,138.014 174,143.5C 173.208,150.247 173.374,156.914 174.5,163.5C 163.069,163.877 154.403,168.877 148.5,178.5C 147.25,178.423 146.417,177.756 146,176.5C 140.294,163.009 136.794,149.009 135.5,134.5C 139.244,134.046 141.744,132.046 143,128.5C 142.812,104.398 149.479,82.3978 163,62.5C 201.286,15.0526 248.786,2.8859 305.5,26C 345.816,48.1082 366.65,82.2749 368,128.5C 368.774,130.939 370.274,132.773 372.5,134C 392.153,134.215 409.486,140.549 424.5,153C 428.072,153.847 431.406,153.347 434.5,151.5 Z"/></g>
<g><path style="opacity:1" fill="#e8ecf4" d="M 135.5,134.5 C 136.794,149.009 140.294,163.009 146,176.5C 146.417,177.756 147.25,178.423 148.5,178.5C 144.408,190.267 147.741,199.434 158.5,206C 162.266,207.559 165.932,209.059 169.5,210.5C 190.173,231.168 215.173,243.335 244.5,247C 250.48,260.807 259.813,271.64 272.5,279.5C 192.166,279.667 111.833,279.5 31.5,279C 25.9136,277.419 21.4136,274.252 18,269.5C 10.7126,253.359 15.2126,241.859 31.5,235C 41.1667,234.667 50.8333,234.333 60.5,234C 63.6351,232.734 65.3017,230.401 65.5,227C 61.8808,210.102 63.0475,193.602 69,177.5C 82.7302,150.213 104.897,135.88 135.5,134.5 Z"/></g>
<g><path style="opacity:1" fill="#090909" d="M 185.5,165.5 C 181.303,167.302 177.636,166.635 174.5,163.5C 173.374,156.914 173.208,150.247 174,143.5C 179.081,138.014 183.748,138.347 188,144.5C 188.667,149.833 188.667,155.167 188,160.5C 187.634,162.452 186.801,164.118 185.5,165.5 Z"/></g>
<g><path style="opacity:1" fill="#080808" d="M 336.5,163.5 C 332.76,166.982 328.76,167.315 324.5,164.5C 322.462,158.038 321.962,151.372 323,144.5C 327.171,138.271 331.837,137.938 337,143.5C 337.756,150.217 337.589,156.883 336.5,163.5 Z"/></g>
<g><path style="opacity:1" fill="#030304" d="M 243.5,145.5 C 253.632,144.958 263.632,145.791 273.5,148C 282.488,151.832 286.822,158.665 286.5,168.5C 283.81,195.995 269.143,206.495 242.5,200C 227.212,190.147 221.712,176.314 226,158.5C 229.999,151.664 235.832,147.331 243.5,145.5 Z"/></g>
<g><path style="opacity:1" fill="#48535e" d="M 245.5,160.5 C 252.175,160.334 258.842,160.5 265.5,161C 270.151,161.654 272.151,164.321 271.5,169C 270.891,182.617 263.891,188.617 250.5,187C 241.077,181.848 237.743,174.015 240.5,163.5C 242.145,162.304 243.811,161.304 245.5,160.5 Z"/></g>
<g><path style="opacity:1" fill="#fea1ac" d="M 174.5,163.5 C 177.636,166.635 181.303,167.302 185.5,165.5C 188.311,165.826 190.978,166.659 193.5,168C 206.685,176.693 208.851,187.526 200,200.5C 191.256,208.063 181.09,211.397 169.5,210.5C 165.932,209.059 162.266,207.559 158.5,206C 147.741,199.434 144.408,190.267 148.5,178.5C 154.403,168.877 163.069,163.877 174.5,163.5 Z"/></g>
<g><path style="opacity:1" fill="#fea1ac" d="M 336.5,163.5 C 349.273,164.124 358.439,170.124 364,181.5C 364.84,197.349 357.34,206.849 341.5,210C 329.691,212.008 319.525,208.841 311,200.5C 302.874,189.297 304.041,179.13 314.5,170C 317.767,167.87 321.1,166.037 324.5,164.5C 328.76,167.315 332.76,166.982 336.5,163.5 Z"/></g>
<g><path style="opacity:0.928" fill="#000000" d="M 92.5,319.5 C 96.2568,319.071 99.7568,319.737 103,321.5C 104.27,329.397 104.937,337.397 105,345.5C 108.702,348.032 112.535,350.365 116.5,352.5C 122.681,348.076 129.347,344.743 136.5,342.5C 141.923,342.091 144.59,344.591 144.5,350C 144.592,352.814 143.592,355.147 141.5,357C 135.918,360.04 130.418,363.207 125,366.5C 124.172,371.202 124.338,375.869 125.5,380.5C 131.415,383.707 137.248,387.04 143,390.5C 146.542,397.755 144.542,402.421 137,404.5C 130.623,401.802 124.457,398.635 118.5,395C 113.453,395.267 108.953,397.1 105,400.5C 104.667,408.167 104.333,415.833 104,423.5C 98.1377,429.194 93.1377,428.527 89,421.5C 88.8313,414.144 88.3313,406.811 87.5,399.5C 84.1437,397.793 80.8104,396.127 77.5,394.5C 70.7206,397.973 63.8873,401.307 57,404.5C 48.529,402.071 46.6956,397.237 51.5,390C 57.5819,386.877 63.4153,383.377 69,379.5C 69.7991,374.913 69.6324,370.413 68.5,366C 61.9137,362.793 55.747,358.959 50,354.5C 47.5191,345.312 51.0191,341.478 60.5,343C 66.1667,346.167 71.8333,349.333 77.5,352.5C 80.8333,350.5 84.1667,348.5 87.5,346.5C 88.3311,339.524 88.8311,332.524 89,325.5C 89.5637,323.113 90.7304,321.113 92.5,319.5 Z M 95.5,360.5 C 99.5587,362.021 103.559,363.854 107.5,366C 108.632,370.413 108.799,374.913 108,379.5C 104.333,381.833 100.667,384.167 97,386.5C 93.6287,384.3 90.1287,382.3 86.5,380.5C 85.3384,375.869 85.1717,371.202 86,366.5C 89.3402,364.637 92.5069,362.637 95.5,360.5 Z"/></g>
<g><path style="opacity:0.933" fill="#000000" d="M 262.5,511.5 C 257.833,511.5 253.167,511.5 248.5,511.5C 233.166,504.007 229,492.341 236,476.5C 238.767,472.692 242.267,469.692 246.5,467.5C 247.81,460.944 247.81,454.444 246.5,448C 241.398,445.032 236.231,442.199 231,439.5C 225.521,442.24 220.187,445.24 215,448.5C 213.654,470.186 202.488,478.352 181.5,473C 168.409,464.136 165.576,452.636 173,438.5C 183.045,428.12 194.212,426.787 206.5,434.5C 211.749,431.626 216.915,428.626 222,425.5C 222.667,418.833 222.667,412.167 222,405.5C 217,402.5 212,399.5 207,396.5C 191.085,405.885 178.752,402.551 170,386.5C 166.827,368.677 174.16,358.344 192,355.5C 207.542,357.714 215.209,366.714 215,382.5C 220.187,385.76 225.521,388.76 231,391.5C 236.231,388.801 241.398,385.968 246.5,383C 247.643,376.582 247.81,370.082 247,363.5C 232.877,355.702 229.21,344.369 236,329.5C 242.557,320.422 251.39,317.256 262.5,320C 274.466,324.756 279.633,333.589 278,346.5C 276.386,354.753 271.719,360.419 264,363.5C 263.19,370.082 263.357,376.582 264.5,383C 269.602,385.968 274.769,388.801 280,391.5C 285.479,388.76 290.813,385.76 296,382.5C 297.374,360.78 308.541,352.613 329.5,358C 342.481,366.887 345.314,378.387 338,392.5C 327.817,402.906 316.484,404.24 304,396.5C 299,399.5 294,402.5 289,405.5C 288.333,412.167 288.333,418.833 289,425.5C 294,428.5 299,431.5 304,434.5C 316.484,426.76 327.817,428.094 338,438.5C 345.314,452.613 342.481,464.113 329.5,473C 308.512,478.352 297.346,470.186 296,448.5C 290.813,445.24 285.479,442.24 280,439.5C 274.769,442.199 269.602,445.032 264.5,448C 263.357,454.418 263.19,460.918 264,467.5C 276.49,473.824 280.823,483.824 277,497.5C 274.226,504.443 269.393,509.11 262.5,511.5 Z M 252.5,335.5 C 261.523,335.062 264.189,338.895 260.5,347C 252.59,350.31 248.756,347.81 249,339.5C 249.69,337.65 250.856,336.316 252.5,335.5 Z M 190.5,371.5 C 196.67,372.162 199.17,375.495 198,381.5C 195.369,385.629 191.869,386.462 187.5,384C 183.513,378.769 184.513,374.602 190.5,371.5 Z M 317.5,371.5 C 324.545,372.286 327.045,375.952 325,382.5C 320.522,386.731 316.522,386.398 313,381.5C 311.571,376.783 313.071,373.45 317.5,371.5 Z M 254.5,396.5 C 260.271,399.22 265.938,402.22 271.5,405.5C 272.833,412.167 272.833,418.833 271.5,425.5C 266.167,428.5 260.833,431.5 255.5,434.5C 250.167,431.5 244.833,428.5 239.5,425.5C 238.167,418.833 238.167,412.167 239.5,405.5C 244.729,402.726 249.729,399.726 254.5,396.5 Z M 189.5,445.5 C 196.771,445.036 199.604,448.369 198,455.5C 192.23,461.057 187.73,460.057 184.5,452.5C 185.065,449.284 186.732,446.951 189.5,445.5 Z M 316.5,445.5 C 325.602,445.878 327.935,449.878 323.5,457.5C 319.418,460.314 315.918,459.647 313,455.5C 311.756,451.191 312.923,447.858 316.5,445.5 Z M 252.5,482.5 C 261.523,482.062 264.189,485.895 260.5,494C 252.59,497.31 248.756,494.81 249,486.5C 249.69,484.65 250.856,483.316 252.5,482.5 Z"/></g>
<g><path style="opacity:0.928" fill="#000000" d="M 410.5,319.5 C 414.603,318.769 418.103,319.769 421,322.5C 422.07,330.446 422.904,338.446 423.5,346.5C 426.833,348.5 430.167,350.5 433.5,352.5C 439.167,349.333 444.833,346.167 450.5,343C 457.239,340.751 461.239,343.085 462.5,350C 462.097,352.887 460.764,355.221 458.5,357C 452.918,360.04 447.418,363.207 442,366.5C 441.333,370.833 441.333,375.167 442,379.5C 448.333,383.5 454.667,387.5 461,391.5C 463.571,398.444 461.238,402.777 454,404.5C 447.658,401.745 441.491,398.579 435.5,395C 433.365,394.365 431.365,394.699 429.5,396C 427.664,397.419 425.664,398.586 423.5,399.5C 422.669,406.811 422.169,414.144 422,421.5C 417.862,428.527 412.862,429.194 407,423.5C 406.817,415.588 406.317,407.754 405.5,400C 402.107,397.637 398.44,395.804 394.5,394.5C 387.721,397.973 380.887,401.307 374,404.5C 369.219,403.888 366.719,401.222 366.5,396.5C 366.404,394.074 367.07,391.907 368.5,390C 374.167,386.833 379.833,383.667 385.5,380.5C 386.802,375.615 386.802,370.782 385.5,366C 379.418,362.877 373.585,359.377 368,355.5C 364.34,345.32 367.84,341.154 378.5,343C 383.703,346.366 389.036,349.532 394.5,352.5C 398.465,350.365 402.298,348.032 406,345.5C 406.333,338.167 406.667,330.833 407,323.5C 407.69,321.65 408.856,320.316 410.5,319.5 Z M 412.5,360.5 C 416.856,361.511 420.856,363.344 424.5,366C 425.802,370.782 425.802,375.615 424.5,380.5C 420.871,382.3 417.371,384.3 414,386.5C 410.333,384.167 406.667,381.833 403,379.5C 402.333,375.167 402.333,370.833 403,366.5C 406.485,364.85 409.651,362.85 412.5,360.5 Z"/></g>
</svg>
