<?xml version="1.0" encoding="UTF-8"?>
<!DOCTYPE svg PUBLIC "-//W3C//DTD SVG 1.1//EN" "http://www.w3.org/Graphics/SVG/1.1/DTD/svg11.dtd">
<svg xmlns="http://www.w3.org/2000/svg" version="1.1" width="512px" height="512px" style="shape-rendering:geometricPrecision; text-rendering:geometricPrecision; image-rendering:optimizeQuality; fill-rule:evenodd; clip-rule:evenodd" xmlns:xlink="http://www.w3.org/1999/xlink">
<g><path style="opacity:0.959" fill="#020100" d="M 246.5,-0.5 C 252.5,-0.5 258.5,-0.5 264.5,-0.5C 270.792,1.47678 276.792,4.31011 282.5,8C 292.644,17.5672 302.978,26.9006 313.5,36C 329.602,33.1034 345.769,30.2701 362,27.5C 380.616,28.1278 393.949,36.7944 402,53.5C 406.603,67.1409 411.103,80.8076 415.5,94.5C 431.571,100.025 447.571,105.858 463.5,112C 476.443,120.884 483.11,133.217 483.5,149C 480.73,165.231 477.897,181.398 475,197.5C 486.04,209.538 496.707,221.871 507,234.5C 508.63,238.571 510.13,242.571 511.5,246.5C 511.5,252.5 511.5,258.5 511.5,264.5C 509.523,270.792 506.69,276.792 503,282.5C 493.433,292.644 484.099,302.978 475,313.5C 477.897,329.602 480.73,345.769 483.5,362C 483.11,377.783 476.443,390.116 463.5,399C 448.456,405.126 433.123,410.459 417.5,415C 415.502,417.623 413.502,420.29 411.5,423C 409.323,424.202 406.989,424.702 404.5,424.5C 398.116,417.676 398.116,410.676 404.5,403.5C 419.615,397.85 434.948,392.684 450.5,388C 464.682,380.799 470.182,369.299 467,353.5C 464.588,341.438 461.921,329.438 459,317.5C 458.333,314.5 458.333,311.5 459,308.5C 469.667,296.5 480.333,284.5 491,272.5C 498.331,261.154 498.331,249.821 491,238.5C 480.333,226.5 469.667,214.5 459,202.5C 460.495,187.351 463.162,172.351 467,157.5C 470.201,141.737 464.701,130.237 450.5,123C 434.948,118.316 419.615,113.15 404.5,107.5C 398.653,92.7949 393.487,77.7949 389,62.5C 383.868,49.9368 374.535,43.6035 361,43.5C 346.328,45.4344 331.828,48.2677 317.5,52C 314.5,52.6667 311.5,52.6667 308.5,52C 296.5,41.3333 284.5,30.6667 272.5,20C 261.139,12.714 249.805,12.714 238.5,20C 226.5,30.6667 214.5,41.3333 202.5,52C 199.833,52.6667 197.167,52.6667 194.5,52C 181.86,49.3366 169.193,46.67 156.5,44C 140.103,41.1142 128.603,47.2808 122,62.5C 117.463,77.2768 112.63,91.9435 107.5,106.5C 89.8283,112.892 72.1616,119.392 54.5,126C 44.6191,133.936 41.1191,144.103 44,156.5C 46.6681,169.174 49.3348,181.841 52,194.5C 52.6667,197.167 52.6667,199.833 52,202.5C 41.3333,214.5 30.6667,226.5 20,238.5C 12.6686,249.821 12.6686,261.154 20,272.5C 30.6667,284.5 41.3333,296.5 52,308.5C 52.6667,310.833 52.6667,313.167 52,315.5C 49.3333,328.167 46.6667,340.833 44,353.5C 41.2843,366.16 44.7843,376.66 54.5,385C 72.1616,391.608 89.8283,398.108 107.5,404.5C 113.15,419.615 118.316,434.948 123,450.5C 127.778,461.802 136.278,467.469 148.5,467.5C 164.022,465.619 179.355,462.785 194.5,459C 197.167,458.333 199.833,458.333 202.5,459C 215.687,470.097 228.687,481.431 241.5,493C 252.204,498.057 262.537,497.391 272.5,491C 284.5,480.333 296.5,469.667 308.5,459C 311.5,458.333 314.5,458.333 317.5,459C 334.168,464.088 351.168,466.754 368.5,467C 381.255,463.24 388.755,454.74 391,441.5C 393.239,438.038 396.406,436.705 400.5,437.5C 404.003,438.649 405.669,441.149 405.5,445C 400.691,468.81 386.191,481.644 362,483.5C 345.769,480.73 329.602,477.897 313.5,475C 302.978,484.099 292.644,493.433 282.5,503C 276.792,506.69 270.792,509.523 264.5,511.5C 258.5,511.5 252.5,511.5 246.5,511.5C 240.208,509.523 234.208,506.69 228.5,503C 218.356,493.433 208.022,484.099 197.5,475C 181.398,477.897 165.231,480.73 149,483.5C 130.384,482.872 117.051,474.206 109,457.5C 104.397,443.859 99.8974,430.192 95.5,416.5C 79.4295,410.975 63.4295,405.142 47.5,399C 34.5566,390.116 27.8899,377.783 27.5,362C 30.2701,345.769 33.1034,329.602 36,313.5C 26.9006,302.978 17.5672,292.644 8,282.5C 4.31011,276.792 1.47678,270.792 -0.5,264.5C -0.5,258.5 -0.5,252.5 -0.5,246.5C 1.47678,240.208 4.31011,234.208 8,228.5C 17.5672,218.356 26.9006,208.022 36,197.5C 33.1034,181.398 30.2701,165.231 27.5,149C 28.1278,130.384 36.7944,117.051 53.5,109C 67.1409,104.397 80.8076,99.8974 94.5,95.5C 100.025,79.4295 105.858,63.4295 112,47.5C 120.884,34.5566 133.217,27.8899 149,27.5C 165.231,30.2701 181.398,33.1034 197.5,36C 209.538,24.9597 221.871,14.293 234.5,4C 238.571,2.36954 242.571,0.869545 246.5,-0.5 Z"/></g>
<g><path style="opacity:1" fill="#fcb156" d="M 404.5,424.5 C 403.565,428.969 402.232,433.303 400.5,437.5C 396.406,436.705 393.239,438.038 391,441.5C 388.755,454.74 381.255,463.24 368.5,467C 351.168,466.754 334.168,464.088 317.5,459C 314.5,458.333 311.5,458.333 308.5,459C 296.5,469.667 284.5,480.333 272.5,491C 262.537,497.391 252.204,498.057 241.5,493C 228.687,481.431 215.687,470.097 202.5,459C 199.833,458.333 197.167,458.333 194.5,459C 179.355,462.785 164.022,465.619 148.5,467.5C 136.278,467.469 127.778,461.802 123,450.5C 118.316,434.948 113.15,419.615 107.5,404.5C 89.8283,398.108 72.1616,391.608 54.5,385C 44.7843,376.66 41.2843,366.16 44,353.5C 46.6667,340.833 49.3333,328.167 52,315.5C 52.6667,313.167 52.6667,310.833 52,308.5C 41.3333,296.5 30.6667,284.5 20,272.5C 12.6686,261.154 12.6686,249.821 20,238.5C 30.6667,226.5 41.3333,214.5 52,202.5C 52.6667,199.833 52.6667,197.167 52,194.5C 49.3348,181.841 46.6681,169.174 44,156.5C 41.1191,144.103 44.6191,133.936 54.5,126C 72.1616,119.392 89.8283,112.892 107.5,106.5C 112.63,91.9435 117.463,77.2768 122,62.5C 128.603,47.2808 140.103,41.1142 156.5,44C 169.193,46.67 181.86,49.3366 194.5,52C 197.167,52.6667 199.833,52.6667 202.5,52C 214.5,41.3333 226.5,30.6667 238.5,20C 249.805,12.714 261.139,12.714 272.5,20C 284.5,30.6667 296.5,41.3333 308.5,52C 311.5,52.6667 314.5,52.6667 317.5,52C 331.828,48.2677 346.328,45.4344 361,43.5C 374.535,43.6035 383.868,49.9368 389,62.5C 393.487,77.7949 398.653,92.7949 404.5,107.5C 419.615,113.15 434.948,118.316 450.5,123C 464.701,130.237 470.201,141.737 467,157.5C 463.162,172.351 460.495,187.351 459,202.5C 469.667,214.5 480.333,226.5 491,238.5C 498.331,249.821 498.331,261.154 491,272.5C 480.333,284.5 469.667,296.5 459,308.5C 458.333,311.5 458.333,314.5 459,317.5C 461.921,329.438 464.588,341.438 467,353.5C 470.182,369.299 464.682,380.799 450.5,388C 434.948,392.684 419.615,397.85 404.5,403.5C 398.116,410.676 398.116,417.676 404.5,424.5 Z"/></g>
<g><path style="opacity:1" fill="#060402" d="M 166.5,89.5 C 166.664,92.1873 166.497,94.854 166,97.5C 91.6923,146.483 63.359,214.816 81,302.5C 99.7231,364.89 139.89,406.724 201.5,428C 225.348,435.075 249.681,437.408 274.5,435C 280.823,434.783 286.823,433.617 292.5,431.5C 356.533,416.636 400.7,378.636 425,317.5C 449.521,239.103 431.688,172.27 371.5,117C 348.525,97.5502 322.192,85.0502 292.5,79.5C 286.807,77.4535 280.807,76.2868 274.5,76C 245.548,72.6601 217.548,76.3268 190.5,87C 185.819,88.4811 182.152,87.3144 179.5,83.5C 178.373,77.1146 181.04,73.2813 187.5,72C 246.28,51.9129 302.613,57.2462 356.5,88C 423.972,132.446 455.139,195.28 450,276.5C 437.165,360.326 390.665,415.826 310.5,443C 224.349,463.839 153.515,440.006 98,371.5C 59.1005,314.536 50.4338,253.202 72,187.5C 88.3197,145.006 115.82,111.84 154.5,88C 158.868,85.7844 162.868,86.2844 166.5,89.5 Z"/></g>
<g><path style="opacity:1" fill="#fecd70" d="M 292.5,79.5 C 233.451,102.718 194.618,144.718 176,205.5C 174.185,211.723 173.019,218.056 172.5,224.5C 161.278,225.854 153.112,231.52 148,241.5C 146.608,257.953 154.108,267.619 170.5,270.5C 177.296,335.746 208.629,385.246 264.5,419C 273.501,424.002 282.834,428.169 292.5,431.5C 286.823,433.617 280.823,434.783 274.5,435C 249.681,437.408 225.348,435.075 201.5,428C 139.89,406.724 99.7231,364.89 81,302.5C 63.359,214.816 91.6923,146.483 166,97.5C 166.497,94.854 166.664,92.1873 166.5,89.5C 170.709,87.2288 175.042,85.2288 179.5,83.5C 182.152,87.3144 185.819,88.4811 190.5,87C 217.548,76.3268 245.548,72.6601 274.5,76C 280.807,76.2868 286.807,77.4535 292.5,79.5 Z"/></g>
<g><path style="opacity:1" fill="#fbe29f" d="M 292.5,79.5 C 322.192,85.0502 348.525,97.5502 371.5,117C 431.688,172.27 449.521,239.103 425,317.5C 400.7,378.636 356.533,416.636 292.5,431.5C 282.834,428.169 273.501,424.002 264.5,419C 208.629,385.246 177.296,335.746 170.5,270.5C 183.91,272.314 194.744,267.98 203,257.5C 206.58,250.305 206.247,243.305 202,236.5C 199.628,234.297 197.461,231.963 195.5,229.5C 196.504,228.317 197.338,226.984 198,225.5C 198.667,220.167 198.667,214.833 198,209.5C 193.255,204.257 188.588,204.257 184,209.5C 183.501,214.489 183.334,219.489 183.5,224.5C 179.833,224.5 176.167,224.5 172.5,224.5C 173.019,218.056 174.185,211.723 176,205.5C 194.618,144.718 233.451,102.718 292.5,79.5 Z"/></g>
<g><path style="opacity:1" fill="#030302" d="M 195.5,229.5 C 189.684,231.987 185.684,230.32 183.5,224.5C 183.334,219.489 183.501,214.489 184,209.5C 188.588,204.257 193.255,204.257 198,209.5C 198.667,214.833 198.667,220.167 198,225.5C 197.338,226.984 196.504,228.317 195.5,229.5 Z"/></g>
<g><path style="opacity:1" fill="#030302" d="M 326.5,225.5 C 324.044,229.558 320.377,231.225 315.5,230.5C 312.067,226.919 310.734,222.586 311.5,217.5C 310.176,209.334 313.51,205.501 321.5,206C 323.286,206.785 324.786,207.951 326,209.5C 326.499,214.823 326.666,220.156 326.5,225.5 Z"/></g>
<g><path style="opacity:1" fill="#fe8e9d" d="M 172.5,224.5 C 176.167,224.5 179.833,224.5 183.5,224.5C 185.684,230.32 189.684,231.987 195.5,229.5C 197.461,231.963 199.628,234.297 202,236.5C 206.247,243.305 206.58,250.305 203,257.5C 194.744,267.98 183.91,272.314 170.5,270.5C 154.108,267.619 146.608,257.953 148,241.5C 153.112,231.52 161.278,225.854 172.5,224.5 Z"/></g>
<g><path style="opacity:1" fill="#fe8e9d" d="M 326.5,225.5 C 339.749,223.083 350.915,226.75 360,236.5C 366.921,255.302 360.421,266.802 340.5,271C 324.824,273.246 313.324,267.412 306,253.5C 304.23,243.716 307.397,236.049 315.5,230.5C 320.377,231.225 324.044,229.558 326.5,225.5 Z"/></g>
<g><path style="opacity:1" fill="#070705" d="M 236.5,233.5 C 242.576,232.704 246.576,235.204 248.5,241C 253.133,244.212 257.8,244.212 262.5,241C 264.421,235.041 268.421,232.708 274.5,234C 278.287,236.111 279.787,239.278 279,243.5C 268.959,259.624 255.793,262.791 239.5,253C 234.684,249.197 232.184,244.364 232,238.5C 233.059,236.341 234.559,234.674 236.5,233.5 Z"/></g>
</svg>
