<?xml version="1.0" encoding="UTF-8"?>
<!DOCTYPE svg PUBLIC "-//W3C//DTD SVG 1.1//EN" "http://www.w3.org/Graphics/SVG/1.1/DTD/svg11.dtd">
<svg xmlns="http://www.w3.org/2000/svg" version="1.1" width="512px" height="512px" style="shape-rendering:geometricPrecision; text-rendering:geometricPrecision; image-rendering:optimizeQuality; fill-rule:evenodd; clip-rule:evenodd" xmlns:xlink="http://www.w3.org/1999/xlink">
<g><path style="opacity:0.963" fill="#020101" d="M 245.5,-0.5 C 257.5,-0.5 269.5,-0.5 281.5,-0.5C 345.015,8.85166 390.515,42.5183 418,100.5C 426.005,119.355 430.505,139.021 431.5,159.5C 475.2,165.87 501.866,190.537 511.5,233.5C 511.5,242.5 511.5,251.5 511.5,260.5C 500.371,307.772 470.371,332.939 421.5,336C 419.317,338.35 416.984,340.517 414.5,342.5C 426.432,351.451 428.932,362.451 422,375.5C 399.776,394.358 377.276,412.858 354.5,431C 342.598,435.883 335.265,432.049 332.5,419.5C 333.026,416.728 333.859,414.062 335,411.5C 342.022,403.312 348.856,394.979 355.5,386.5C 337.064,379.635 331.897,367.302 340,349.5C 344.534,345.301 348.701,340.801 352.5,336C 339.833,335.333 327.167,335.333 314.5,336C 305.833,344.333 297.167,352.667 288.5,361C 296.09,362.544 302.59,366.044 308,371.5C 311.702,376.456 311.202,380.789 306.5,384.5C 301.164,386.662 297.164,385.162 294.5,380C 292.725,378.561 290.725,377.561 288.5,377C 280.833,376.667 273.167,376.333 265.5,376C 261.139,373.774 259.639,370.274 261,365.5C 270.733,355.264 280.9,345.597 291.5,336.5C 292.043,336.44 292.376,336.107 292.5,335.5C 288.217,334.508 283.884,334.174 279.5,334.5C 276.092,333.422 274.092,331.089 273.5,327.5C 273.744,324.737 275.077,322.571 277.5,321C 328.002,320.833 378.335,320.333 428.5,319.5C 463.369,315.473 485.536,296.473 495,262.5C 500.09,229.524 488.923,203.691 461.5,185C 446.416,176.317 430.249,173.15 413,175.5C 405.502,174.503 403.169,170.503 406,163.5C 408.642,160.971 411.808,159.971 415.5,160.5C 412.194,107.08 388.194,65.913 343.5,37C 327.318,27.408 309.985,20.908 291.5,17.5C 224.955,7.69036 172.455,30.357 134,85.5C 129.681,92.4709 126.181,99.8042 123.5,107.5C 131.006,107.596 138.339,108.763 145.5,111C 150.726,115.251 150.726,119.585 145.5,124C 102.713,114.266 66.5462,125.432 37,157.5C 9.98854,194.069 7.32187,232.402 29,272.5C 47.0032,300.127 72.5032,315.96 105.5,320C 155.167,320.333 204.833,320.667 254.5,321C 256.923,322.571 258.256,324.737 258.5,327.5C 258.052,330.233 256.719,332.399 254.5,334C 246.812,334.169 239.145,334.669 231.5,335.5C 215.446,352.051 199.946,369.051 185,386.5C 181.864,398.067 185.698,406.567 196.5,412C 207.833,412.333 219.167,412.667 230.5,413C 235.434,415.665 236.601,419.498 234,424.5C 215.667,446.833 197.333,469.167 179,491.5C 178.014,493.925 178.681,495.591 181,496.5C 217.573,467.458 254.073,438.292 290.5,409C 293.833,405.667 297.167,402.333 300.5,399C 302.885,398.444 305.218,398.61 307.5,399.5C 310.436,400.515 311.769,402.682 311.5,406C 311.167,410 309.5,413.333 306.5,416C 267.129,448.333 227.462,480.166 187.5,511.5C 183.167,511.5 178.833,511.5 174.5,511.5C 163.533,505.319 160.366,496.319 165,484.5C 180.167,466 195.333,447.5 210.5,429C 191.32,430.506 177.82,422.673 170,405.5C 166.066,391.983 168.732,379.983 178,369.5C 188.5,358.333 199,347.167 209.5,336C 191.5,335.333 173.5,335.333 155.5,336C 152.5,339 149.5,342 146.5,345C 161.805,353.917 165.638,366.417 158,382.5C 130.413,406.091 102.246,428.924 73.5,451C 58.1735,453.008 51.6735,446.508 54,431.5C 62.8963,418.88 72.3963,406.714 82.5,395C 63.6879,392.854 55.1879,382.354 57,363.5C 57.8993,359.462 59.566,355.795 62,352.5C 68.9647,345.881 75.4647,338.881 81.5,331.5C 41.6854,318.186 15.5187,291.519 3,251.5C 1.87517,246.354 0.708503,241.354 -0.5,236.5C -0.5,226.167 -0.5,215.833 -0.5,205.5C 7.1878,162.635 30.8545,132.135 70.5,114C 82.1532,109.703 94.1532,106.869 106.5,105.5C 133.232,44.4315 179.565,9.09816 245.5,-0.5 Z"/></g>
<g><path style="opacity:1" fill="#b8baba" d="M 291.5,17.5 C 286.099,16.9664 281.099,18.133 276.5,21C 208.65,56.0943 177.65,111.928 183.5,188.5C 179.329,198.452 181.329,206.785 189.5,213.5C 205.925,265.094 239.592,300.26 290.5,319C 336.499,319.5 382.499,319.667 428.5,319.5C 378.335,320.333 328.002,320.833 277.5,321C 275.077,322.571 273.744,324.737 273.5,327.5C 268.5,327.5 263.5,327.5 258.5,327.5C 258.256,324.737 256.923,322.571 254.5,321C 204.833,320.667 155.167,320.333 105.5,320C 72.5032,315.96 47.0032,300.127 29,272.5C 7.32187,232.402 9.98854,194.069 37,157.5C 66.5462,125.432 102.713,114.266 145.5,124C 150.726,119.585 150.726,115.251 145.5,111C 138.339,108.763 131.006,107.596 123.5,107.5C 126.181,99.8042 129.681,92.4709 134,85.5C 172.455,30.357 224.955,7.69036 291.5,17.5 Z"/></g>
<g><path style="opacity:1" fill="#d3d3d4" d="M 291.5,17.5 C 309.985,20.908 327.318,27.408 343.5,37C 388.194,65.913 412.194,107.08 415.5,160.5C 411.808,159.971 408.642,160.971 406,163.5C 403.169,170.503 405.502,174.503 413,175.5C 430.249,173.15 446.416,176.317 461.5,185C 488.923,203.691 500.09,229.524 495,262.5C 485.536,296.473 463.369,315.473 428.5,319.5C 382.499,319.667 336.499,319.5 290.5,319C 239.592,300.26 205.925,265.094 189.5,213.5C 201.169,220.236 212.835,220.069 224.5,213C 234.137,202.673 233.804,192.673 223.5,183C 221.807,182.153 220.14,181.32 218.5,180.5C 218.666,174.491 218.499,168.491 218,162.5C 213.594,158.577 209.261,158.577 205,162.5C 204.501,167.823 204.334,173.156 204.5,178.5C 196.07,178.882 189.07,182.215 183.5,188.5C 177.65,111.928 208.65,56.0943 276.5,21C 281.099,18.133 286.099,16.9664 291.5,17.5 Z"/></g>
<g><path style="opacity:1" fill="#050505" d="M 205.5,133.5 C 207.857,133.337 210.19,133.503 212.5,134C 217.167,136.667 221.833,139.333 226.5,142C 230.875,147.121 230.209,151.455 224.5,155C 222.833,155.667 221.167,155.667 219.5,155C 214.833,152.333 210.167,149.667 205.5,147C 200.193,142.375 200.193,137.875 205.5,133.5 Z"/></g>
<g><path style="opacity:1" fill="#060606" d="M 338.5,133.5 C 347.347,132.59 350.514,136.256 348,144.5C 342.923,148.624 337.423,152.124 331.5,155C 322.958,155.421 320.125,151.588 323,143.5C 328.146,140.018 333.313,136.685 338.5,133.5 Z"/></g>
<g><path style="opacity:1" fill="#040303" d="M 218.5,180.5 C 215.408,183.355 211.741,184.188 207.5,183C 205.859,181.871 204.859,180.371 204.5,178.5C 204.334,173.156 204.501,167.823 205,162.5C 209.261,158.577 213.594,158.577 218,162.5C 218.499,168.491 218.666,174.491 218.5,180.5 Z"/></g>
<g><path style="opacity:1" fill="#040303" d="M 346.5,178.5 C 346.141,180.371 345.141,181.871 343.5,183C 339.259,184.188 335.592,183.355 332.5,180.5C 332.334,174.491 332.501,168.491 333,162.5C 337.261,158.577 341.594,158.577 346,162.5C 346.499,167.823 346.666,173.156 346.5,178.5 Z"/></g>
<g><path style="opacity:1" fill="#050505" d="M 268.5,172.5 C 280.947,170.313 290.781,174.313 298,184.5C 300.732,193.106 297.566,196.939 288.5,196C 286.126,193.961 284.126,191.628 282.5,189C 278.167,187 273.833,187 269.5,189C 267.874,191.628 265.874,193.961 263.5,196C 254.434,196.939 251.268,193.106 254,184.5C 257.811,179.189 262.644,175.189 268.5,172.5 Z"/></g>
<g><path style="opacity:1" fill="#fe8e9e" d="M 204.5,178.5 C 204.859,180.371 205.859,181.871 207.5,183C 211.741,184.188 215.408,183.355 218.5,180.5C 220.14,181.32 221.807,182.153 223.5,183C 233.804,192.673 234.137,202.673 224.5,213C 212.835,220.069 201.169,220.236 189.5,213.5C 181.329,206.785 179.329,198.452 183.5,188.5C 189.07,182.215 196.07,178.882 204.5,178.5 Z"/></g>
<g><path style="opacity:1" fill="#fe8e9e" d="M 346.5,178.5 C 356.536,179.26 364.036,183.926 369,192.5C 370.546,207.638 363.713,216.471 348.5,219C 336.651,220.611 327.484,216.444 321,206.5C 316.955,194.263 320.788,185.596 332.5,180.5C 335.592,183.355 339.259,184.188 343.5,183C 345.141,181.871 346.141,180.371 346.5,178.5 Z"/></g>
<g><path style="opacity:1" fill="#fcb156" d="M 258.5,327.5 C 263.5,327.5 268.5,327.5 273.5,327.5C 274.092,331.089 276.092,333.422 279.5,334.5C 283.5,335.167 287.5,335.833 291.5,336.5C 280.9,345.597 270.733,355.264 261,365.5C 259.639,370.274 261.139,373.774 265.5,376C 273.167,376.333 280.833,376.667 288.5,377C 290.725,377.561 292.725,378.561 294.5,380C 297.164,385.162 301.164,386.662 306.5,384.5C 308.631,389.367 308.964,394.367 307.5,399.5C 305.218,398.61 302.885,398.444 300.5,399C 297.167,402.333 293.833,405.667 290.5,409C 254.073,438.292 217.573,467.458 181,496.5C 178.681,495.591 178.014,493.925 179,491.5C 197.333,469.167 215.667,446.833 234,424.5C 236.601,419.498 235.434,415.665 230.5,413C 219.167,412.667 207.833,412.333 196.5,412C 185.698,406.567 181.864,398.067 185,386.5C 199.946,369.051 215.446,352.051 231.5,335.5C 239.145,334.669 246.812,334.169 254.5,334C 256.719,332.399 258.052,330.233 258.5,327.5 Z"/></g>
<g><path style="opacity:1" fill="#f8df9d" d="M 105.5,334.5 C 114.5,335.167 123.5,335.833 132.5,336.5C 128.202,340.296 124.036,344.296 120,348.5C 118.639,353.274 120.139,356.774 124.5,359C 130.942,359.083 137.275,359.749 143.5,361C 146.803,364.795 147.303,368.962 145,373.5C 121.957,392.879 98.6235,411.879 75,430.5C 84.0802,417.384 94.0802,404.717 105,392.5C 106.483,389.298 106.817,385.964 106,382.5C 105.097,381.299 103.931,380.465 102.5,380C 94.5,379.667 86.5,379.333 78.5,379C 72.8912,375.723 71.0578,370.89 73,364.5C 81.3668,354.454 90.2001,344.788 99.5,335.5C 101.396,334.534 103.396,334.201 105.5,334.5 Z"/></g>
<g><path style="opacity:1" fill="#7b6e4e" d="M 105.5,334.5 C 114.857,334.168 124.19,334.502 133.5,335.5C 133.376,336.107 133.043,336.44 132.5,336.5C 123.5,335.833 114.5,335.167 105.5,334.5 Z"/></g>
<g><path style="opacity:1" fill="#785529" d="M 279.5,334.5 C 283.884,334.174 288.217,334.508 292.5,335.5C 292.376,336.107 292.043,336.44 291.5,336.5C 287.5,335.833 283.5,335.167 279.5,334.5 Z"/></g>
<g><path style="opacity:1" fill="#faecd0" d="M 374.5,335.5 C 382.507,335.334 390.507,335.5 398.5,336C 382.788,350.488 385.788,357.488 407.5,357C 410.29,359.21 411.123,362.044 410,365.5C 393.951,379.584 377.451,392.751 360.5,405C 366.667,397.5 372.833,390 379,382.5C 381.843,377.351 380.676,373.517 375.5,371C 368.833,370.667 362.167,370.333 355.5,370C 351.788,367.398 350.622,363.898 352,359.5C 359.338,351.329 366.838,343.329 374.5,335.5 Z"/></g>
</svg>
