<?xml version="1.0" encoding="UTF-8"?>
<!DOCTYPE svg PUBLIC "-//W3C//DTD SVG 1.1//EN" "http://www.w3.org/Graphics/SVG/1.1/DTD/svg11.dtd">
<svg xmlns="http://www.w3.org/2000/svg" version="1.1" width="512px" height="512px" style="shape-rendering:geometricPrecision; text-rendering:geometricPrecision; image-rendering:optimizeQuality; fill-rule:evenodd; clip-rule:evenodd" xmlns:xlink="http://www.w3.org/1999/xlink">
<g><path style="opacity:0.991" fill="#000000" d="M 236.5,-0.5 C 246.833,-0.5 257.167,-0.5 267.5,-0.5C 317.797,8.28989 351.963,36.6232 370,84.5C 385.759,147.928 366.259,197.094 311.5,232C 275.908,249.392 239.574,251.059 202.5,237C 149.294,210.39 124.794,167.223 129,107.5C 135.481,65.6925 156.981,34.1925 193.5,13C 207.16,5.94454 221.493,1.44454 236.5,-0.5 Z"/></g>
<g><path style="opacity:0.994" fill="#000000" d="M 393.5,511.5 C 301.167,511.5 208.833,511.5 116.5,511.5C 84.553,507.395 61.7197,490.728 48,461.5C 44.9767,454.097 42.9767,446.431 42,438.5C 39.3143,400.004 43.6476,362.338 55,325.5C 62.4542,302.068 75.2875,282.235 93.5,266C 114.012,250.497 137.012,244.497 162.5,248C 173.503,254.166 184.17,260.833 194.5,268C 232.636,290.13 271.303,291.13 310.5,271C 322.665,263.083 334.999,255.416 347.5,248C 388.504,243.919 419.671,259.419 441,294.5C 457.001,324.831 466.001,357.164 468,391.5C 469.439,407.517 469.439,423.517 468,439.5C 459.981,480.922 435.147,504.922 393.5,511.5 Z"/></g>
</svg>
